<mxfile host="app.diagrams.net" modified="2021-05-29T23:16:42.589Z" agent="5.0 (Windows NT 10.0; Win64; x64) AppleWebKit/537.36 (KHTML, like Gecko) Chrome/89.0.4389.90 Safari/537.36" etag="x4kYvp8A5N_zgvYVh0JU" version="14.7.0" type="github">
  <diagram id="6OgHAIoOX9pApHHIhi0o" name="Page-1">
    <mxGraphModel dx="782" dy="381" grid="1" gridSize="10" guides="1" tooltips="1" connect="1" arrows="1" fold="1" page="1" pageScale="1" pageWidth="827" pageHeight="1169" math="0" shadow="0">
      <root>
        <mxCell id="0" />
        <mxCell id="1" parent="0" />
        <mxCell id="VG_LlP_TlRW7tgk0G426-2" value="vnet_policer_main_t" style="swimlane;fontStyle=1;align=center;verticalAlign=top;childLayout=stackLayout;horizontal=1;startSize=26;horizontalStack=0;resizeParent=1;resizeParentMax=0;resizeLast=0;collapsible=1;marginBottom=0;fillColor=#ffe6cc;strokeColor=#d79b00;" vertex="1" parent="1">
          <mxGeometry x="50" y="250" width="270" height="286" as="geometry" />
        </mxCell>
        <mxCell id="VG_LlP_TlRW7tgk0G426-3" value="policer_t *policers  policer pool内存池" style="text;strokeColor=#b85450;fillColor=#f8cecc;align=left;verticalAlign=top;spacingLeft=4;spacingRight=4;overflow=hidden;rotatable=0;points=[[0,0.5],[1,0.5]];portConstraint=eastwest;" vertex="1" parent="VG_LlP_TlRW7tgk0G426-2">
          <mxGeometry y="26" width="270" height="26" as="geometry" />
        </mxCell>
        <mxCell id="VG_LlP_TlRW7tgk0G426-5" value="qos_pol_cfg_params_st *configs &#xa;policer qos配置参数pool内存池" style="text;strokeColor=#b85450;fillColor=#f8cecc;align=left;verticalAlign=top;spacingLeft=4;spacingRight=4;overflow=hidden;rotatable=0;points=[[0,0.5],[1,0.5]];portConstraint=eastwest;" vertex="1" parent="VG_LlP_TlRW7tgk0G426-2">
          <mxGeometry y="52" width="270" height="38" as="geometry" />
        </mxCell>
        <mxCell id="VG_LlP_TlRW7tgk0G426-6" value="policer_t *policer_templates" style="text;fillColor=#f8cecc;align=left;verticalAlign=top;spacingLeft=4;spacingRight=4;overflow=hidden;rotatable=0;points=[[0,0.5],[1,0.5]];portConstraint=eastwest;strokeColor=#b85450;" vertex="1" parent="VG_LlP_TlRW7tgk0G426-2">
          <mxGeometry y="90" width="270" height="26" as="geometry" />
        </mxCell>
        <mxCell id="VG_LlP_TlRW7tgk0G426-7" value="uword *policer_config_by_name" style="text;fillColor=#f8cecc;align=left;verticalAlign=top;spacingLeft=4;spacingRight=4;overflow=hidden;rotatable=0;points=[[0,0.5],[1,0.5]];portConstraint=eastwest;strokeColor=#b85450;" vertex="1" parent="VG_LlP_TlRW7tgk0G426-2">
          <mxGeometry y="116" width="270" height="26" as="geometry" />
        </mxCell>
        <mxCell id="VG_LlP_TlRW7tgk0G426-8" value="uword *policer_index_by_name" style="text;fillColor=#f8cecc;align=left;verticalAlign=top;spacingLeft=4;spacingRight=4;overflow=hidden;rotatable=0;points=[[0,0.5],[1,0.5]];portConstraint=eastwest;strokeColor=#b85450;" vertex="1" parent="VG_LlP_TlRW7tgk0G426-2">
          <mxGeometry y="142" width="270" height="26" as="geometry" />
        </mxCell>
        <mxCell id="VG_LlP_TlRW7tgk0G426-9" value="u32 *policer_index_by_sw_if_index" style="text;fillColor=#f8cecc;align=left;verticalAlign=top;spacingLeft=4;spacingRight=4;overflow=hidden;rotatable=0;points=[[0,0.5],[1,0.5]];portConstraint=eastwest;strokeColor=#b85450;" vertex="1" parent="VG_LlP_TlRW7tgk0G426-2">
          <mxGeometry y="168" width="270" height="26" as="geometry" />
        </mxCell>
        <mxCell id="VG_LlP_TlRW7tgk0G426-10" value="vlib_main_t *vlib_main;&#xa;vnet_main_t *vnet_main;" style="text;fillColor=#f8cecc;align=left;verticalAlign=top;spacingLeft=4;spacingRight=4;overflow=hidden;rotatable=0;points=[[0,0.5],[1,0.5]];portConstraint=eastwest;strokeColor=#b85450;" vertex="1" parent="VG_LlP_TlRW7tgk0G426-2">
          <mxGeometry y="194" width="270" height="40" as="geometry" />
        </mxCell>
        <mxCell id="VG_LlP_TlRW7tgk0G426-11" value="vlib_log_class_t log_class，log模块索引" style="text;fillColor=#f8cecc;align=left;verticalAlign=top;spacingLeft=4;spacingRight=4;overflow=hidden;rotatable=0;points=[[0,0.5],[1,0.5]];portConstraint=eastwest;strokeColor=#b85450;" vertex="1" parent="VG_LlP_TlRW7tgk0G426-2">
          <mxGeometry y="234" width="270" height="26" as="geometry" />
        </mxCell>
        <mxCell id="VG_LlP_TlRW7tgk0G426-12" value="u32 fq_index；handoff功能frame queue索引" style="text;fillColor=#f8cecc;align=left;verticalAlign=top;spacingLeft=4;spacingRight=4;overflow=hidden;rotatable=0;points=[[0,0.5],[1,0.5]];portConstraint=eastwest;strokeColor=#b85450;" vertex="1" parent="VG_LlP_TlRW7tgk0G426-2">
          <mxGeometry y="260" width="270" height="26" as="geometry" />
        </mxCell>
      </root>
    </mxGraphModel>
  </diagram>
</mxfile>
